<svg width="670" height="512" viewBox="0 0 670 512" fill="none" xmlns="http://www.w3.org/2000/svg">
<g id="undraw_book_lover_re_rwjy 1">
<g id="book">
<path id="Vector" d="M407.03 201.916V202.568C405.628 200.925 404.197 199.296 402.781 197.667C402.186 196.987 401.591 196.308 400.996 195.628C398.475 192.766 395.939 189.915 393.39 187.072C390.826 184.24 388.262 181.407 385.67 178.588C385.047 177.908 384.424 177.228 383.787 176.549C383.277 175.977 382.722 175.447 382.129 174.962C381.531 174.464 380.844 174.085 380.104 173.843C379.252 173.607 378.354 173.597 377.498 173.815C376.52 174.042 375.586 174.396 374.637 174.693C373.659 175.019 372.696 175.33 371.719 175.642C369.764 176.279 367.824 176.917 365.869 177.554C365.845 177.564 365.82 177.569 365.795 177.569C365.769 177.568 365.744 177.563 365.721 177.553C365.697 177.543 365.676 177.529 365.658 177.511C365.64 177.493 365.626 177.471 365.617 177.448L365.614 177.441C365.603 177.414 365.598 177.385 365.599 177.356C365.6 177.327 365.608 177.299 365.622 177.273C365.635 177.247 365.654 177.225 365.677 177.207C365.701 177.19 365.727 177.178 365.756 177.172C366.237 177.016 366.733 176.86 367.229 176.704C369.198 176.053 371.152 175.416 373.121 174.778C374.098 174.452 375.076 174.141 376.053 173.829C376.96 173.485 377.917 173.293 378.886 173.263C380.468 173.376 381.952 174.073 383.05 175.217C383.659 175.784 384.212 176.379 384.764 176.988C385.415 177.696 386.067 178.404 386.719 179.112C389.339 181.974 391.94 184.844 394.523 187.724C397.115 190.614 399.684 193.508 402.228 196.407C402.412 196.619 402.596 196.832 402.781 197.044C404.211 198.659 405.614 200.288 407.03 201.916Z" fill="white"/>
<path id="Vector_2" d="M381.91 177.572C381.374 176.882 380.661 176.352 379.847 176.039L379.042 176.067C385.363 185.904 393.645 194.332 403.371 200.825C396.217 193.074 389.063 185.323 381.91 177.572Z" fill="white"/>
<path id="Vector_3" d="M513.839 279.802L481.752 107.992C481.203 105.16 479.708 102.599 477.512 100.727C475.316 98.8563 472.549 97.7868 469.666 97.6943C469.407 97.6886 469.147 97.6886 468.888 97.6943L447.029 98.4784L444.676 98.5649L433.767 98.957L431.414 99.0378L424.397 99.2915L282.899 104.371C282.686 104.383 282.467 104.383 282.254 104.377L250.546 103.714L238.813 103.472L238.438 103.466L229.777 103.282L154.312 101.713L134.304 101.292L124.438 101.09L122.074 101.039L110.825 100.808L108.466 100.756L96.9573 100.52L94.599 100.468L81.9541 100.202L79.9706 100.162L68.6923 99.9257L66.9107 99.8911H66.6512C63.657 99.9033 60.7636 100.974 58.4824 102.913C56.2011 104.852 54.679 107.536 54.1851 110.489L25.1648 288.774C24.8701 290.58 24.9715 292.428 25.4621 294.191C25.9527 295.954 26.8206 297.589 28.0058 298.984C29.1911 300.378 30.6652 301.498 32.3262 302.266C33.9872 303.034 35.7952 303.431 37.6251 303.431H204.286C206.739 303.438 209.126 304.225 211.101 305.68L214.261 308.021C216.439 309.624 219.07 310.492 221.774 310.5C253.962 302.005 287.804 302.005 319.992 310.5C321.652 310.504 323.296 310.179 324.829 309.544C326.362 308.909 327.754 307.975 328.924 306.798C330.924 304.798 333.594 303.609 336.419 303.46L502.088 294.73C503.885 294.636 505.641 294.16 507.238 293.332C508.835 292.504 510.237 291.345 511.35 289.931C512.462 288.518 513.26 286.883 513.69 285.136C514.119 283.389 514.17 281.57 513.839 279.802V279.802Z" fill="#CCCCCC"/>
<path id="Vector_4" d="M468.439 253.01C468.226 258.832 465.71 264.332 461.444 268.3C457.178 272.267 451.511 274.379 445.689 274.17C436.069 273.83 424.589 273.66 412.129 273.92C371.439 274.79 320.319 280.39 289.569 300.53C285.704 303.067 281.137 304.32 276.519 304.11C276.179 304.09 275.849 304.07 275.509 304.04C270.721 303.602 266.209 301.603 262.669 298.35C245.729 282.85 206.879 264.08 117.949 262.76C117.579 262.76 117.219 262.74 116.859 262.72C113.979 262.539 111.162 261.792 108.571 260.521C105.979 259.251 103.664 257.482 101.756 255.317C99.8485 253.151 98.3864 250.631 97.4535 247.899C96.5206 245.168 96.135 242.28 96.3189 239.4L105.059 100.69L106.369 79.9L108.669 43.53C108.901 39.8673 110.518 36.4302 113.193 33.9172C115.868 31.4041 119.399 30.0035 123.069 30H123.159L176.139 30.31C198.459 31.32 216.946 34.1633 231.599 38.84C236.604 40.3921 241.474 42.3521 246.159 44.7C252.558 47.8024 258.307 52.0956 263.099 57.3501C266.084 60.7067 270.155 62.9052 274.599 63.56C275.288 63.663 275.983 63.7264 276.679 63.75C280.777 63.9196 284.821 62.7623 288.209 60.45C322.819 37.26 393.349 35.5 432.299 36.5C437.746 36.6271 442.951 38.7773 446.9 42.5318C450.848 46.2863 453.258 51.3762 453.659 56.81L455.239 77.5001L456.809 98.13L465.869 217.36L468.389 250.53C468.451 251.355 468.467 252.183 468.439 253.01V253.01Z" fill="#F2F2F2"/>
<path id="Vector_5" d="M131.129 78.8098C163.056 68.6235 198.676 71.3203 228.922 85.6707C237.552 89.744 245.703 94.764 253.223 100.638C255.351 102.308 258.378 99.3213 256.228 97.6337C228.447 76.086 193.541 65.8499 158.523 68.9819C148.835 69.8488 139.271 71.7703 130 74.7124C127.404 75.5404 128.514 79.6444 131.129 78.8098H131.129Z" fill="#3F3D56"/>
<path id="Vector_6" d="M306.813 102.287C336.497 86.6845 372.043 83.2822 404.317 92.1386C413.518 94.6575 422.41 98.193 430.829 102.68C433.241 103.967 435.39 100.3 432.974 99.0108C402.214 82.5975 365.29 78.8192 331.7 87.9686C322.329 90.5255 313.265 94.0962 304.669 98.6176C302.247 99.8904 304.392 103.559 306.813 102.287Z" fill="#3F3D56"/>
<path id="Vector_7" d="M306.813 130.615C336.497 115.013 372.043 111.61 404.317 120.467C413.518 122.986 422.41 126.521 430.829 131.008C433.241 132.295 435.39 128.628 432.974 127.339C402.214 110.926 365.29 107.147 331.7 116.297C322.329 118.854 313.265 122.424 304.669 126.946C302.247 128.219 304.392 131.887 306.813 130.615L306.813 130.615Z" fill="#3F3D56"/>
<path id="Vector_8" d="M434.013 157.423C434.036 157.059 433.948 156.696 433.761 156.382C433.574 156.068 433.298 155.817 432.966 155.662C408.325 142.759 380.385 137.526 352.744 140.636C352.571 140.65 352.412 140.677 352.224 140.691H352.217C352.047 140.706 351.878 140.732 351.711 140.768C335.271 142.659 319.322 147.575 304.669 155.267C304.35 155.457 304.085 155.727 303.902 156.051C303.718 156.374 303.622 156.74 303.622 157.112V209.957C303.628 210.282 303.707 210.602 303.854 210.892C304.001 211.182 304.212 211.435 304.471 211.632C304.73 211.828 305.031 211.963 305.35 212.026C305.669 212.089 305.998 212.079 306.313 211.996C306.965 211.809 307.616 211.628 308.282 211.455C323.095 207.445 338.302 205.067 353.632 204.361C353.958 204.347 354.284 204.334 354.624 204.32C367.11 203.783 379.618 204.233 392.034 205.665C392.294 205.68 392.553 205.707 392.81 205.748C393.448 205.817 394.1 205.894 394.738 205.977C394.995 206.005 395.237 206.032 395.473 206.074C397.955 206.386 400.417 206.74 402.886 207.121C406.45 207.69 410.014 208.323 413.578 209.021C413.8 209.063 414.029 209.118 414.258 209.16C419.978 210.297 425.671 211.614 431.337 213.071C431.652 213.152 431.982 213.161 432.301 213.096C432.621 213.032 432.921 212.895 433.18 212.698C433.439 212.5 433.65 212.246 433.797 211.955C433.944 211.664 434.022 211.344 434.027 211.018V157.507C434.029 157.478 434.025 157.45 434.013 157.423V157.423Z" fill="#3F3D56"/>
<path id="Vector_9" d="M356.076 143.517C354.519 142.755 352.735 142.598 351.069 143.077C350.333 143.353 349.659 143.773 349.087 144.311C348.514 144.849 348.054 145.496 347.734 146.214C347.157 147.59 346.787 149.043 346.636 150.528C346.548 151.112 346.543 151.848 347.13 152.121C347.343 152.198 347.573 152.216 347.795 152.172C348.017 152.128 348.223 152.024 348.391 151.871C348.694 151.573 348.944 151.224 349.129 150.841C350.149 149.256 351.551 147.953 353.207 147.052C354.863 146.152 356.719 145.684 358.603 145.69L360.172 146.316C358.938 145.204 357.56 144.263 356.076 143.517V143.517Z" fill="#FF6582"/>
<path id="Vector_10" d="M373.054 155.697C371.837 153.905 370.394 151.992 368.135 151.406C365.519 150.729 362.831 152.075 360.551 153.404C353.772 157.352 347.207 161.657 340.885 166.301L340.892 166.371L355.567 165.47C359.102 165.253 362.757 165.006 365.881 163.518C367.002 162.815 368.256 162.348 369.564 162.146C370.376 162.19 371.171 162.395 371.903 162.748C372.636 163.1 373.291 163.595 373.831 164.202C380.594 170.613 382.552 180.416 390.139 186.048C385.311 175.467 379.596 165.314 373.054 155.697V155.697Z" fill="white"/>
<path id="Vector_11" d="M354.626 204.319C354.286 204.333 353.96 204.347 353.634 204.361C351.269 203.511 348.847 202.761 346.397 202.109C344.81 201.684 343.196 201.302 341.581 200.976C339.754 200.58 337.912 200.268 336.071 199.999C332.565 199.489 329.032 199.191 325.49 199.106C325.464 199.109 325.436 199.107 325.411 199.098C325.385 199.09 325.361 199.076 325.341 199.058C325.321 199.04 325.305 199.018 325.294 198.994C325.283 198.969 325.277 198.942 325.277 198.915C325.277 198.888 325.283 198.861 325.294 198.837C325.305 198.812 325.321 198.79 325.341 198.772C325.361 198.754 325.385 198.74 325.411 198.732C325.436 198.724 325.464 198.721 325.49 198.724C325.943 198.724 326.397 198.738 326.836 198.766C330.385 198.898 333.923 199.243 337.431 199.8C339.258 200.098 341.085 200.452 342.898 200.849C344.541 201.217 346.184 201.628 347.799 202.081C350.107 202.732 352.383 203.478 354.626 204.319Z" fill="white"/>
<path id="Vector_12" d="M395.475 206.075C395.235 206.032 394.994 206.004 394.739 205.976C393.761 205.169 392.77 204.404 391.736 203.653C390.447 202.718 389.116 201.84 387.756 201.019C384.745 199.191 381.601 197.59 378.351 196.231C373.213 194.091 367.894 192.413 362.459 191.217C356.258 189.859 349.982 188.875 343.663 188.271C337.346 187.619 331 187.223 324.655 186.826C324.386 186.812 324.371 186.415 324.655 186.429C325.448 186.486 326.241 186.528 327.048 186.585C333.465 186.982 339.881 187.435 346.255 188.158C352.575 188.835 358.844 189.923 365.022 191.415C370.297 192.715 375.445 194.483 380.405 196.698C383.257 197.98 386.021 199.452 388.676 201.103C390.362 202.166 391.991 203.299 393.549 204.503C394.201 205.013 394.852 205.523 395.475 206.075Z" fill="white"/>
<path id="Vector_13" d="M392.813 205.749C392.554 205.708 392.294 205.679 392.033 205.664C391.736 205.423 391.424 205.197 391.113 204.97C388.932 203.409 386.657 201.986 384.3 200.707C382.159 199.543 379.961 198.489 377.713 197.548C372.578 195.402 367.259 193.724 361.821 192.534C355.621 191.176 349.344 190.192 343.025 189.588C336.708 188.936 330.363 188.54 324.017 188.143C323.748 188.115 323.748 187.733 324.017 187.747C324.825 187.803 325.618 187.846 326.411 187.903C332.827 188.299 339.244 188.752 345.618 189.475C351.937 190.152 358.207 191.24 364.385 192.733C369.66 194.03 374.808 195.798 379.767 198.016C381.637 198.866 383.464 199.786 385.249 200.792C387.895 202.245 390.424 203.902 392.813 205.749Z" fill="white"/>
<path id="Vector_14" d="M414.257 209.163C414.03 209.12 413.804 209.064 413.577 209.021C413.322 208.752 413.081 208.469 412.84 208.185C411.623 206.783 410.419 205.367 409.229 203.936C404.54 198.356 400.093 192.605 395.9 186.741C392.303 181.727 388.889 176.614 385.66 171.401C384.116 168.937 382.628 166.444 381.17 163.923C380.036 161.968 378.932 160.009 377.855 158.045C377.544 157.478 377.246 156.911 376.949 156.345C376.254 155.013 375.56 153.668 374.824 152.351C374.023 150.737 372.848 149.338 371.396 148.271C370.671 147.785 369.831 147.497 368.96 147.436C367.732 147.44 366.524 147.752 365.447 148.342C357.523 152.032 350.048 156.618 343.167 162.01C336.447 167.237 330.371 173.242 325.065 179.9C324.896 180.098 324.527 179.914 324.683 179.701C325.32 178.908 325.972 178.115 326.623 177.336C331.723 171.304 337.465 165.847 343.748 161.061C343.762 161.047 343.79 161.033 343.805 161.019C344.357 160.58 344.909 160.155 345.476 159.744C348.984 157.161 352.635 154.778 356.411 152.606C358.337 151.487 360.306 150.424 362.317 149.419C362.813 149.164 363.323 148.909 363.832 148.668C364.342 148.413 364.853 148.172 365.362 147.931C366.372 147.417 367.475 147.113 368.606 147.039C372.544 146.982 374.569 150.948 375.971 153.625C376.41 154.461 376.864 155.297 377.303 156.132C379.003 159.291 380.773 162.436 382.614 165.537C383.733 167.464 384.895 169.376 386.07 171.274C387.756 173.979 389.484 176.656 391.283 179.319C391.283 179.321 391.283 179.323 391.284 179.325C391.284 179.326 391.285 179.328 391.287 179.329C391.288 179.33 391.289 179.332 391.291 179.332C391.293 179.333 391.294 179.333 391.296 179.333H391.297C393.379 182.478 395.546 185.565 397.784 188.639C401.623 193.894 405.645 199.031 409.852 204.05C411.297 205.778 412.765 207.482 414.257 209.163Z" fill="white"/>
<path id="Vector_15" d="M363.724 146.607L363.332 146.779C362.434 145.263 361.176 143.993 359.67 143.081C358.163 142.169 356.454 141.643 354.696 141.55C348.897 141.138 343.803 145.003 343.34 150.164C343.152 152.289 343.767 154.408 345.064 156.102L344.7 156.317C343.349 154.553 342.709 152.347 342.905 150.133C343.386 144.758 348.692 140.734 354.73 141.163C356.562 141.259 358.341 141.807 359.91 142.757C361.479 143.706 362.789 145.029 363.724 146.607V146.607Z" fill="#FF6582"/>
<path id="Vector_16" d="M335.07 157.05C333.548 156.388 331.89 156.098 330.234 156.203C328.578 156.309 326.97 156.807 325.545 157.656C330.75 158.455 335.909 159.527 341.001 160.867C338.893 159.768 337.243 158.044 335.07 157.05Z" fill="white"/>
<path id="Vector_17" d="M325.516 157.652L324.942 158.066C325.136 157.921 325.338 157.785 325.545 157.656L325.516 157.652Z" fill="white"/>
<path id="Vector_18" d="M342.775 160.056C342.546 159.83 342.319 159.603 342.089 159.376C340.326 157.458 338.203 155.904 335.841 154.804C334.638 154.298 333.348 154.031 332.043 154.02C330.694 154.052 329.361 154.311 328.099 154.786C327.505 154.997 326.925 155.237 326.353 155.492C325.7 155.785 325.058 156.097 324.419 156.412C323.22 157.002 322.036 157.619 320.868 158.261C318.544 159.54 316.293 160.916 314.115 162.389C312.986 163.154 311.88 163.943 310.797 164.757C309.79 165.514 308.803 166.29 307.837 167.087C307.63 167.257 307.322 166.982 307.529 166.813C307.783 166.602 308.041 166.392 308.298 166.184C309.026 165.599 309.765 165.025 310.516 164.462C311.885 163.433 313.29 162.445 314.73 161.496C316.97 160.019 319.286 158.642 321.68 157.366C322.876 156.729 324.089 156.118 325.318 155.535C325.689 155.359 326.065 155.186 326.445 155.023C327.312 154.634 328.207 154.31 329.122 154.053C330.435 153.677 331.808 153.557 333.166 153.699C334.467 153.865 335.729 154.254 336.897 154.848C339.213 156.146 341.302 157.812 343.083 159.781C343.269 159.967 342.962 160.243 342.775 160.056Z" fill="white"/>
<path id="Vector_19" d="M131.129 107.138C163.056 96.9518 198.676 99.6486 228.922 113.999C237.552 118.072 245.703 123.092 253.223 128.967C255.351 130.636 258.378 127.65 256.228 125.962C228.447 104.414 193.541 94.1781 158.523 97.3101C148.835 98.177 139.271 100.099 130 103.041C127.404 103.869 128.514 107.973 131.129 107.138L131.129 107.138Z" fill="#3F3D56"/>
<path id="Vector_20" d="M131.129 135.466C163.056 125.28 198.676 127.977 228.922 142.327C237.552 146.4 245.703 151.42 253.223 157.295C255.351 158.965 258.378 155.978 256.228 154.29C228.447 132.742 193.541 122.506 158.523 125.638C148.835 126.505 139.271 128.427 130 131.369C127.404 132.197 128.514 136.301 131.129 135.466L131.129 135.466Z" fill="#3F3D56"/>
<path id="Vector_21" d="M131.129 163.794C163.056 153.608 198.676 156.305 228.922 170.655C237.552 174.729 245.703 179.749 253.223 185.623C255.351 187.293 258.378 184.306 256.228 182.618C228.447 161.071 193.541 150.834 158.523 153.967C148.835 154.833 139.271 156.755 130 159.697C127.404 160.525 128.514 164.629 131.129 163.794L131.129 163.794Z" fill="#3F3D56"/>
<path id="Vector_22" d="M131.129 192.123C163.056 181.936 198.676 184.633 228.922 198.984C237.552 203.057 245.703 208.077 253.223 213.951C255.351 215.621 258.378 212.634 256.228 210.947C228.447 189.399 193.541 179.163 158.523 182.295C148.835 183.162 139.271 185.083 130 188.025C127.404 188.853 128.514 192.957 131.129 192.123L131.129 192.123Z" fill="#3F3D56"/>
<path id="Vector_23" d="M131.129 220.451C163.056 210.265 198.676 212.961 228.922 227.312C237.552 231.385 245.703 236.405 253.223 242.279C255.351 243.949 258.378 240.962 256.228 239.275C228.447 217.727 193.541 207.491 158.523 210.623C148.835 211.49 139.271 213.411 130 216.353C127.404 217.181 128.514 221.285 131.129 220.451H131.129Z" fill="#3F3D56"/>
<path id="Vector_24" d="M246.159 44.7V112.63C246.159 113.98 243.799 115.11 240.619 115.42C240.592 115.418 240.565 115.422 240.539 115.43C240.009 115.47 239.449 115.5 238.879 115.5C237.126 115.532 235.381 115.248 233.729 114.66C233.579 114.6 233.429 114.53 233.279 114.47C233.139 114.39 232.989 114.32 232.849 114.24C232.059 113.77 231.599 113.22 231.599 112.63V38.84C236.604 40.3921 241.474 42.352 246.159 44.7V44.7Z" fill="#80B5C0"/>
<path id="Vector_25" d="M276.677 60.4554H274.597V302.69H276.677V60.4554Z" fill="#E6E6E6"/>
</g>
<g id="person">
<path id="Vector_26" d="M481.576 440.943H470.268L463.616 376.73L484.863 375.461L481.576 440.943Z" fill="#FFB6B6"/>
<path id="Vector_27" d="M447.939 455.705C447.94 456.986 448.45 458.214 449.355 459.12C450.261 460.026 451.489 460.535 452.77 460.536H474.283L477.992 452.881L479.432 460.536H487.541L485.261 433.194L481.972 433.001L469.373 432.241L467.196 432.116V439.862L450.026 451.724C449.382 452.169 448.856 452.764 448.492 453.457C448.129 454.151 447.939 454.922 447.939 455.705V455.705Z" fill="#2F2E41"/>
<path id="Vector_28" d="M559.613 161.814L562.687 168.965L557.663 194.36L506.408 187.234L506.817 156.267L507.846 149.485L559.613 161.814Z" fill="#FFB6B6"/>
<path id="Vector_29" d="M586.094 490.943H574.786L569.404 447.327H586.094V490.943Z" fill="#FFB6B6"/>
<path id="Vector_30" d="M552.458 505.705C552.459 506.986 552.968 508.214 553.874 509.12C554.78 510.026 556.008 510.535 557.289 510.536H578.802L582.511 502.881L583.951 510.536H592.059L589.78 483.194L586.094 482.978L573.71 482.241L571.714 482.116V489.862L554.545 501.724C553.901 502.169 553.374 502.764 553.011 503.457C552.648 504.151 552.458 504.922 552.458 505.705Z" fill="#2F2E41"/>
<path id="Vector_31" d="M590.894 453.331H590.85L588.675 382.412C590.082 379.697 590.797 376.677 590.754 373.619C590.712 370.562 589.914 367.562 588.432 364.888L588.121 364.324L588.928 360.582C589.965 355.774 589.489 350.763 587.566 346.237L585.537 280.083C592.785 233.109 558.242 202.474 558.242 202.474L561.417 177.853L505.547 179.123L506.497 202.474L495.388 240.642C489.542 297.602 450.194 333.404 456.175 387.873C456.187 388.03 456.164 388.187 456.106 388.333C455.5 390.178 455.286 392.13 455.479 394.063C455.673 395.996 456.269 397.867 457.23 399.555C457.479 399.986 457.65 400.457 457.735 400.947C458.968 410.496 459.128 398.417 460.761 407.882L460.443 408.042C459.299 408.437 458.809 410.022 459.347 411.582C459.885 413.142 461.249 414.087 462.393 413.692L492.26 414.011C493.404 413.617 493.895 412.032 493.357 410.472C492.818 408.911 491.454 407.967 490.31 408.362L488.452 409.302L491.561 399.131L492.65 398.113C493.173 397.626 493.578 397.027 493.835 396.361C494.093 395.695 494.197 394.979 494.139 394.267C494.081 393.555 493.863 392.866 493.501 392.25C493.139 391.634 492.642 391.108 492.048 390.712L495.145 374.184L494.705 361.684L495.611 347.504L534.8 290.718L550.655 369.156L566.85 454.12C566.473 454.461 566.189 454.893 566.026 455.375C565.863 455.857 565.827 456.373 565.921 456.873C566.07 457.571 566.458 458.196 567.017 458.641C567.577 459.085 568.273 459.321 568.987 459.308H590.973C591.434 459.307 591.888 459.2 592.301 458.995C592.714 458.79 593.074 458.493 593.353 458.126C593.632 457.759 593.823 457.333 593.91 456.88C593.998 456.427 593.979 455.961 593.857 455.516C593.671 454.877 593.281 454.317 592.745 453.922C592.21 453.527 591.559 453.319 590.894 453.331V453.331Z" fill="#2F2E41"/>
<path id="Vector_32" d="M571.343 41.1403C571.344 45.6682 570.234 50.1273 568.11 54.1261C565.986 58.1249 562.913 61.5412 559.161 64.0751C555.408 66.609 551.091 68.183 546.589 68.6589C542.086 69.1348 537.535 68.4982 533.336 66.8048C529.136 65.1114 525.417 62.413 522.504 58.9466C519.591 55.4802 517.573 51.3517 516.628 46.9235C515.684 42.4954 515.84 37.9029 517.084 33.5494C518.328 29.1958 520.622 25.2142 523.765 21.9541L523.897 21.8215C524.119 21.5891 524.34 21.3567 524.572 21.1354C524.574 21.1354 524.575 21.1351 524.577 21.1346C524.578 21.134 524.579 21.1332 524.58 21.1322C524.581 21.1311 524.582 21.1299 524.583 21.1285C524.583 21.1272 524.583 21.1257 524.583 21.1243C524.901 20.8927 525.193 20.6295 525.458 20.3387C529.192 15.1207 533.425 10.7452 543.681 13.4787C558.446 17.4141 571.343 25.86 571.343 41.1403Z" fill="#2F2E41"/>
<path id="Vector_33" d="M419.391 29.2986C419.329 30.7786 419.591 32.2543 420.161 33.6218C420.73 34.9893 421.592 36.2154 422.687 37.2136C423.781 38.2118 425.081 38.958 426.495 39.3994C427.909 39.8409 429.403 39.967 430.87 39.7688L502.208 98.3154L513.104 79.1632L439.556 27.6362C439.059 25.1922 437.684 23.0152 435.689 21.5177C433.695 20.0202 431.221 19.3062 428.735 19.5111C426.25 19.7161 423.926 20.8256 422.204 22.6295C420.481 24.4334 419.481 26.8064 419.391 29.2987V29.2986Z" fill="#FFB6B6"/>
<path id="Vector_34" d="M532.33 115.581C532.33 115.581 532.308 113.473 520.968 113.554C506.891 113.655 468.122 93.4448 471.514 74.4115C469.904 75.139 468.097 75.3102 466.379 74.8981C464.661 74.486 463.129 73.5141 462.024 72.1353L480.898 53.9637C486.82 54.3637 486.881 58.3268 486.373 60.6024L501.542 66.6297L541.048 89.3269L534.072 112.126L532.33 115.581Z" fill="#80B5C0"/>
<path id="Vector_35" d="M536.866 70.7358C549.676 70.7358 560.061 60.3509 560.061 47.5404C560.061 34.7299 549.676 24.345 536.866 24.345C524.055 24.345 513.67 34.7299 513.67 47.5404C513.67 60.3509 524.055 70.7358 536.866 70.7358Z" fill="#FFB7B7"/>
<path id="Vector_36" d="M504.986 162.912C503.705 164.622 503.051 166.72 503.133 168.856C503.216 170.991 504.03 173.032 505.44 174.638C505.451 175.319 505.553 175.976 506.517 178.415C506.643 178.651 506.791 178.875 506.959 179.084C506.991 179.135 507.025 179.184 507.061 179.231C508.077 180.544 509.489 181.495 511.087 181.942L553.547 193.793L559.16 195.357L560.147 195.63L560.691 187.963C561.954 186.917 562.8 185.453 563.076 183.837C563.353 182.221 563.042 180.559 562.2 179.152L561.417 177.859L565.976 165.6L566.418 164.386L578.042 133.098L578.054 131.011L578.076 128.856L578.19 113.818C578.195 109.079 577.102 104.403 574.997 100.157C572.892 95.9106 569.831 92.2101 566.055 89.3454C562.616 86.7176 558.652 84.861 554.431 83.9019L554.34 83.8906L549.748 77.7099L531.115 79.5698L529.573 82.7338L527.701 86.5443L514.195 94.5848L509.579 105.313L506.46 112.571C501.629 116.041 498.749 120.498 497.921 125.806C496.152 137.078 504.045 148.362 504.986 149.655L505.224 162.595L504.986 162.912Z" fill="#80B5C0"/>
<path id="Vector_37" d="M561.141 53.6212C560.931 53.588 560.72 53.5437 560.51 53.5105C556.892 52.8688 553.274 52.2382 549.667 51.5852L549.335 43.4086L544.964 50.7332C534.995 54.0416 525.668 52.1717 516.893 48.0446C513.999 46.6707 511.191 45.1225 508.484 43.4086C507.593 29.58 513.184 20.727 523.588 21.6555C523.968 21.6894 524.24 21.3015 524.572 21.1354C524.574 21.1354 524.575 21.1351 524.577 21.1346C524.578 21.134 524.579 21.1332 524.58 21.1321C524.581 21.1311 524.582 21.1299 524.583 21.1285C524.583 21.1272 524.583 21.1257 524.583 21.1243C525.148 20.8587 525.723 20.6043 526.298 20.372C530.803 18.6116 535.714 18.1658 540.462 19.0864C545.21 20.0069 549.599 22.256 553.119 25.5723C560.2 32.3329 563.387 43.4971 561.141 53.6212Z" fill="#2F2E41"/>
<path id="Vector_38" d="M560.51 53.5105C560.51 53.5105 553.639 27.8627 524.185 21.943C524.152 21.9321 524.041 21.8878 523.897 21.8215C523.809 21.7661 523.698 21.7107 523.588 21.6555C523.92 21.4673 524.24 21.3015 524.572 21.1353C524.574 21.1354 524.575 21.1351 524.577 21.1346C524.578 21.134 524.579 21.1332 524.58 21.1321C524.581 21.1311 524.582 21.1299 524.583 21.1285C524.583 21.1272 524.583 21.1257 524.583 21.1243C524.871 20.8587 525.159 20.5932 525.458 20.3387L526.298 20.372C526.298 20.372 555.852 15.6916 560.51 53.5105Z" fill="#FD6584"/>
<path id="Vector_39" d="M571.841 215.188C571.296 215.655 570.633 215.962 569.924 216.076C569.216 216.191 568.49 216.109 567.825 215.838C566.503 215.277 565.328 214.418 564.393 213.328C560.578 209.326 557.852 204.413 556.475 199.057L557.748 196.794C557.248 194.002 557.718 191.124 559.08 188.636C560.441 186.149 562.613 184.202 565.234 183.118C566.725 182.486 568.378 182.342 569.956 182.708C570.738 182.902 571.453 183.304 572.026 183.871C572.599 184.439 573.008 185.15 573.21 185.931C573.7 188.352 571.683 190.539 569.64 191.929C566.081 194.344 561.967 195.816 557.684 196.207C562.923 199.16 567.452 203.224 570.953 208.115C571.763 209.135 572.359 210.307 572.709 211.561C572.877 212.19 572.885 212.851 572.734 213.484C572.582 214.118 572.276 214.703 571.841 215.188Z" fill="#2F2E41"/>
<path id="Vector_40" d="M477.901 215.135C479.376 215 480.803 214.543 482.083 213.797C483.362 213.05 484.463 212.032 485.306 210.815C486.15 209.597 486.716 208.21 486.966 206.749C487.215 205.289 487.141 203.792 486.749 202.364L529.927 182.208L555.921 140.159L535.489 131.91L517.953 165.794L473.568 195.371C471.212 196.189 469.237 197.842 468.019 200.018C466.8 202.194 466.422 204.741 466.956 207.177C467.49 209.613 468.899 211.769 470.916 213.235C472.934 214.702 475.419 215.378 477.901 215.135V215.135Z" fill="#FFB6B6"/>
<path id="Vector_41" d="M571.956 99.8773C571.956 99.8773 577.045 101.538 571.46 111.409C566.988 119.31 545.207 164.826 536.317 173.763C537.253 175.262 537.663 177.029 537.483 178.787C537.304 180.545 536.544 182.193 535.325 183.471L514.802 167.185C514.41 161.262 518.33 160.674 520.653 160.874L525.374 144.141L541.842 102.862L568.299 98.6114L571.956 99.8773Z" fill="#80B5C0"/>
<path id="Vector_42" d="M572.399 22.5082C573.37 18.585 580.409 15.6882 568.351 10.2109C565.424 8.88163 565.546 4.30383 563.07 2.25373C560.595 0.203633 556.969 -0.746819 554.092 0.686121C551.523 1.96573 550.075 4.86153 549.767 7.71523C549.619 10.5874 549.95 13.4641 550.748 16.2273L550.514 16.5689C555.291 20.224 560.067 23.879 564.844 27.534C566.599 28.8771 568.894 30.2835 570.861 29.2757C573.088 28.1348 571.799 24.9372 572.399 22.5082Z" fill="#2F2E41"/>
</g>
</g>
</svg>
